<?xml version="1.0" encoding="UTF-8" standalone="no"?>
<!-- Created with Inkscape (http://www.inkscape.org/) -->

<svg
   version="1.1"
   id="svg2"
   width="644"
   height="187"
   viewBox="0 0 644 187"
   sodipodi:docname="algonquin-college-seeklogo.com.eps"
   xmlns:inkscape="http://www.inkscape.org/namespaces/inkscape"
   xmlns:sodipodi="http://sodipodi.sourceforge.net/DTD/sodipodi-0.dtd"
   xmlns="http://www.w3.org/2000/svg"
   xmlns:svg="http://www.w3.org/2000/svg">
  <defs
     id="defs6" />
  <sodipodi:namedview
     id="namedview4"
     pagecolor="#ffffff"
     bordercolor="#000000"
     borderopacity="0.25"
     inkscape:showpageshadow="2"
     inkscape:pageopacity="0.0"
     inkscape:pagecheckerboard="0"
     inkscape:deskcolor="#d1d1d1" />
  <g
     id="g8"
     inkscape:groupmode="layer"
     inkscape:label="ink_ext_XXXXXX"
     transform="matrix(1.3333333,0,0,-1.3333333,0,187)">
    <g
       id="g10"
       transform="scale(0.1)">
      <path
         d="m 2941.05,804.961 c -17.53,25.82 -27.46,57.344 -27.46,91.113 v 1.426 c 0,85.469 62.66,155.27 153.01,155.27 h 1.45 c 90.35,0 153,-69.801 153,-155.27 v -1.426 c 0,-26.972 -5.35,-51.875 -15.23,-73.379 l -30.82,27.149 -69.34,-79.219 c 60.55,-10.078 123.21,-17.852 187.66,-23.164 l -0.12,0.078 c 29.18,42.246 45.16,91.758 45.16,144.961 v 1.445 c 0,145.005 -112.93,262.305 -270.31,262.305 -157.35,0 -271.76,-118.77 -271.76,-263.75 v -1.465 c 0,-15 1.29,-29.707 3.63,-44.004 45,-15.586 92.15,-29.648 141.13,-42.07"
         style="fill:#006838;fill-opacity:1;fill-rule:nonzero;stroke:none"
         id="path12" />
      <path
         d="m 3722.73,748.086 c 35.16,2.871 69.97,6.406 104.38,10.566 10.27,28.809 15.66,62.481 15.66,101.055 V 1147.5 H 3730.59 V 855.352 c 0,-56.055 -19.96,-93.184 -55,-110.723 15.66,1.035 31.4,2.168 47.14,3.457"
         style="fill:#006838;fill-opacity:1;fill-rule:nonzero;stroke:none"
         id="path14" />
      <path
         d="M 4033.75,791.816 V 1147.5 H 3921.52 V 771.719 c 38.01,5.957 75.39,12.676 112.23,20.097"
         style="fill:#006838;fill-opacity:1;fill-rule:nonzero;stroke:none"
         id="path16" />
      <path
         d="m 4232.58,840.547 v 121.172 l 74.72,-98.086 c 36.06,11.836 71.22,24.414 105.4,37.656 L 4225.31,1147.5 H 4121.84 V 811.25 c 37.69,9.004 74.61,18.789 110.74,29.297"
         style="fill:#006838;fill-opacity:1;fill-rule:nonzero;stroke:none"
         id="path18" />
      <path
         d="m 3576.99,740.039 c -42.11,15.313 -66.44,55.391 -66.44,118.945 V 1147.5 H 3398.36 V 856.055 c 0,-45.371 7.69,-83.965 22.15,-115.821 51.33,-1.601 103.55,-1.699 156.48,-0.195"
         style="fill:#006838;fill-opacity:1;fill-rule:nonzero;stroke:none"
         id="path20" />
      <path
         d="M 4121.84,760.723 V 637.5 h 110.74 v 142.891 c -36.41,-7.051 -73.32,-13.614 -110.74,-19.668"
         style="fill:#006838;fill-opacity:1;fill-rule:nonzero;stroke:none"
         id="path22" />
      <path
         d="M 3921.52,733.77 V 637.5 h 112.23 v 110.039 c -36.99,-5.078 -74.41,-9.687 -112.23,-13.769"
         style="fill:#006838;fill-opacity:1;fill-rule:nonzero;stroke:none"
         id="path24" />
      <path
         d="m 3804.38,722.891 c -125.86,-9.805 -248.91,-13.36 -367.86,-11.211 37.27,-54.571 100.32,-82.188 182.58,-82.188 87.66,0 154.69,31.074 191.6,93.906 -2.11,-0.175 -4.22,-0.351 -6.32,-0.507"
         style="fill:#006838;fill-opacity:1;fill-rule:nonzero;stroke:none"
         id="path26" />
      <path
         d="m 3044.92,740.879 c -0.9,0.137 -1.79,0.234 -2.65,0.371 -77.27,10.527 -151.49,23.711 -222.15,39.297 41.05,-89.688 131.99,-151.797 246.48,-151.797 56.84,0 109.26,16.836 152.23,44.492 l 80.51,-71.972 71.83,81.367 -38.94,32.441 c -99.46,4.668 -195.51,13.379 -287.31,25.801"
         style="fill:#006838;fill-opacity:1;fill-rule:nonzero;stroke:none"
         id="path28" />
      <path
         d="m 4464.3,833.477 -0.04,0.019 c -36.84,-9.844 -74.42,-19.16 -112.7,-27.969 L 4479.57,637.5 h 95.47 v 227.734 c -36.13,-11.093 -73.05,-21.679 -110.74,-31.738 v -0.019"
         style="fill:#006838;fill-opacity:1;fill-rule:nonzero;stroke:none"
         id="path30" />
      <path
         d="M 4464.3,1147.5 V 922.09 c 38.28,16.094 75.23,33.066 110.74,50.82 V 1147.5 H 4464.3"
         style="fill:#006838;fill-opacity:1;fill-rule:nonzero;stroke:none"
         id="path32" />
      <path
         d="m 1181.37,993.184 c 39.37,2.402 78.4,4.277 117.11,5.664 26.72,32.932 65.82,53.922 109.8,53.922 59.02,0 94.02,-18.92 133.36,-51.72 l 70.66,85.24 c -53.2,45.19 -108.55,69.96 -200.35,69.96 -116.99,0 -210.07,-68.16 -248.4,-164.199 5.94,0.39 11.88,0.762 17.82,1.133"
         style="fill:#006838;fill-opacity:1;fill-rule:nonzero;stroke:none"
         id="path34" />
      <path
         d="m 1822.42,986.055 c 26.6,40.335 71.25,66.715 126.17,66.715 69.11,0 122.82,-42.61 144.26,-101.735 43.36,-7.558 85.28,-15.879 125.55,-24.922 -15.35,129.787 -122.81,230.137 -268.36,230.137 -117.93,0 -211.72,-66.72 -251.33,-161.191 41.99,-2.383 83.28,-5.391 123.71,-9.004"
         style="fill:#006838;fill-opacity:1;fill-rule:nonzero;stroke:none"
         id="path36" />
      <path
         d="M 937.773,971.758 V 1147.5 H 825.586 V 957.344 c 36.836,5.234 74.258,10.039 112.187,14.414"
         style="fill:#006838;fill-opacity:1;fill-rule:nonzero;stroke:none"
         id="path38" />
      <path
         d="m 2622.19,833.477 -0.04,0.039 v 0 L 2383.2,1147.5 H 2279.77 V 911.445 c 38.63,-9.804 75.58,-20.351 110.74,-31.562 v 81.836 L 2637.46,637.5 h 95.47 v 163.984 c -38.16,9.922 -75.12,20.625 -110.74,32.032 v -0.039"
         style="fill:#006838;fill-opacity:1;fill-rule:nonzero;stroke:none"
         id="path40" />
      <path
         d="m 2279.77,637.5 h 110.74 v 149.883 c -35.16,17.09 -72.11,33.125 -110.74,48.105 V 637.5"
         style="fill:#006838;fill-opacity:1;fill-rule:nonzero;stroke:none"
         id="path42" />
      <path
         d="M 2622.19,1147.5 V 922.109 c 34.92,-17.871 71.91,-34.609 110.74,-50.136 V 1147.5 h -110.74"
         style="fill:#006838;fill-opacity:1;fill-rule:nonzero;stroke:none"
         id="path44" />
      <path
         d="m 2103.05,893.086 c 0,-0.195 0,-0.391 0,-0.586 v -1.465 c 0,-87.422 -62.66,-158.828 -153.01,-158.828 -90.31,0 -154.45,72.871 -154.45,160.293 v 1.445 c 0,20.352 3.43,39.785 9.8,57.696 -38.44,5 -77.58,9.16 -117.3,12.5 -6.37,-22.813 -9.81,-46.836 -9.81,-71.641 v -1.465 c 0,-144.98 112.93,-262.285 270.31,-262.285 144.65,0 252.93,100.352 269.5,229.18 -37.04,12.656 -75.39,24.414 -115.04,35.156"
         style="fill:#006838;fill-opacity:1;fill-rule:nonzero;stroke:none"
         id="path46" />
      <path
         d="m 1409.02,834.219 h 112.93 v -72.852 c -28.4,-20.429 -64.84,-30.625 -105.62,-30.625 -90.35,0 -154.45,68.496 -154.45,161.758 v 1.445 c 0,26.914 6.21,52.422 17.26,74.785 -21.09,-1.23 -42.3,-2.656 -63.59,-4.335 -21.06,-1.68 -42.03,-3.575 -62.85,-5.665 -5.32,-21.191 -8.13,-43.378 -8.13,-66.23 v -1.465 c 0,-150.801 109.26,-262.285 268.13,-262.285 93.24,0 165.35,36.426 217.81,80.879 v 221.484 h -221.49 v -96.894"
         style="fill:#006838;fill-opacity:1;fill-rule:nonzero;stroke:none"
         id="path48" />
      <path
         d="m 937.773,929.297 c -38.007,-6.641 -75.39,-13.945 -112.187,-21.914 V 637.5 H 1144.22 V 743.047 H 937.773 v 186.25"
         style="fill:#006838;fill-opacity:1;fill-rule:nonzero;stroke:none"
         id="path50" />
      <path
         d="M 293.242,727.344 255,637.5 H 369.375 L 412.5,743.047 H 635.234 L 678.32,637.5 H 795.625 L 694.336,875.508 C 547.617,835.938 412.578,785.742 293.242,727.344"
         style="fill:#006838;fill-opacity:1;fill-rule:nonzero;stroke:none"
         id="path52" />
      <path
         d="m 472.383,890.684 51.484,125.686 42.735,-104.456 c 33.867,7.149 68.437,13.926 103.593,20.313 L 577.031,1151.13 H 473.594 L 349.023,858.438 c 39.844,11.289 80.977,22.07 123.36,32.246"
         style="fill:#006838;fill-opacity:1;fill-rule:nonzero;stroke:none"
         id="path54" />
      <path
         d="m 2548.71,402.891 v 0.839 c 0,84.571 63.32,153.848 153.4,153.848 54.84,0 87.97,-19.121 116.44,-46.328 L 2785,472.578 c -23.83,22.11 -49.3,36.973 -83.32,36.973 -56.95,0 -98.16,-46.738 -98.16,-104.961 v -0.86 c 0,-58.218 41.21,-105.82 98.16,-105.82 36.56,0 59.92,14.86 85.43,38.668 l 33.59,-33.996 c -31.05,-32.293 -65.04,-52.684 -120.7,-52.684 -86.72,0 -151.29,67.563 -151.29,152.993"
         style="fill:#006838;fill-opacity:1;fill-rule:nonzero;stroke:none"
         id="path56" />
      <path
         d="m 3104.41,402.891 v 0.839 c 0,57.793 -42.07,105.821 -101.13,105.821 -59.06,0 -100.31,-47.168 -100.31,-104.961 v -0.86 c 0,-57.789 42.07,-105.82 101.17,-105.82 59.06,0 100.27,47.192 100.27,104.981 z m -256.25,0 v 0.839 c 0,83.731 64.61,153.848 155.98,153.848 91.37,0 155.12,-69.277 155.12,-152.988 v -0.86 c 0,-83.71 -64.61,-153.832 -155.98,-153.832 -91.37,0 -155.12,69.282 -155.12,152.993"
         style="fill:#006838;fill-opacity:1;fill-rule:nonzero;stroke:none"
         id="path58" />
      <path
         d="m 3213.16,552.48 h 52.27 V 302.582 h 156.41 V 255 h -208.68 v 297.48"
         style="fill:#006838;fill-opacity:1;fill-rule:nonzero;stroke:none"
         id="path60" />
      <path
         d="m 3475.94,552.48 h 52.26 V 302.582 h 156.41 V 255 h -208.67 v 297.48"
         style="fill:#006838;fill-opacity:1;fill-rule:nonzero;stroke:none"
         id="path62" />
      <path
         d="m 3738.67,552.48 h 220.59 v -46.738 h -168.28 v -77.344 h 149.14 v -46.757 h -149.14 v -79.903 h 170.39 V 255 h -222.7 v 297.48"
         style="fill:#006838;fill-opacity:1;fill-rule:nonzero;stroke:none"
         id="path64" />
      <path
         d="m 4006.29,402.891 v 0.839 c 0,83.301 63.75,153.848 153.4,153.848 51.87,0 83.75,-14.453 114.33,-40.371 l -33.12,-39.531 c -22.97,19.551 -45.51,31.875 -83.32,31.875 -54.85,0 -96.49,-48.028 -96.49,-104.961 v -0.86 c 0,-61.191 40.39,-106.23 101.18,-106.23 28.04,0 53.55,8.91 71.79,22.52 v 55.66 h -76.05 v 45.472 h 126.64 V 296.211 c -29.34,-25.082 -71.41,-46.313 -124.1,-46.313 -93.09,0 -154.26,66.274 -154.26,152.993"
         style="fill:#006838;fill-opacity:1;fill-rule:nonzero;stroke:none"
         id="path66" />
      <path
         d="m 4352.34,552.48 h 220.55 v -46.738 h -168.28 v -77.344 h 149.18 v -46.757 h -149.18 v -79.903 h 170.43 V 255 h -222.7 v 297.48"
         style="fill:#006838;fill-opacity:1;fill-rule:nonzero;stroke:none"
         id="path68" />
    </g>
  </g>
</svg>
